<svg width="25" height="26" viewBox="0 0 25 26" fill="none" xmlns="http://www.w3.org/2000/svg">
<g id="more-vertical">
<path id="Vector" d="M11.2572 13.0216C11.2692 13.5737 11.7265 14.0117 12.2787 13.9997C12.8308 13.9877 13.2687 13.5304 13.2568 12.9783C13.2448 12.4261 12.7875 11.9882 12.2353 12.0002C11.6832 12.0121 11.2453 12.4694 11.2572 13.0216Z" stroke="#3A3A3D" stroke-width="2" stroke-linecap="round" stroke-linejoin="round"/>
<path id="Vector_2" d="M18.2558 12.8693C18.2677 13.4214 18.725 13.8593 19.2772 13.8474C19.8293 13.8354 20.2673 13.3781 20.2553 12.8259C20.2433 12.2738 19.786 11.8359 19.2339 11.8478C18.6817 11.8598 18.2438 12.3171 18.2558 12.8693Z" stroke="#3A3A3D" stroke-width="2" stroke-linecap="round" stroke-linejoin="round"/>
<path id="Vector_3" d="M4.25894 13.172C4.2709 13.7241 4.72821 14.1621 5.28036 14.1501C5.83252 14.1381 6.27043 13.6808 6.25847 13.1287C6.24651 12.5765 5.78921 12.1386 5.23705 12.1506C4.6849 12.1625 4.24698 12.6198 4.25894 13.172Z" stroke="#3A3A3D" stroke-width="2" stroke-linecap="round" stroke-linejoin="round"/>
</g>
</svg>
